<svg width="965" height="118" viewBox="0 0 965 118" fill="none" xmlns="http://www.w3.org/2000/svg">
<path d="M423 102L911 94" stroke="#FF0000" stroke-width="30" stroke-linecap="square" stroke-linejoin="bevel"/>
<path d="M8.28 94V22.45H16.38V70.96H16.65L37.44 45.13H46.62L30.33 64.84L48.69 94H39.78L25.47 70.42L16.38 81.13V94H8.28ZM59.7382 94V45.13H67.9282V94H59.7382ZM63.8782 35.05C60.6382 35.05 58.3882 32.98 58.3882 29.56C58.3882 26.41 60.6382 24.34 63.8782 24.34C67.0282 24.34 69.3682 26.41 69.3682 29.56C69.3682 32.98 67.0282 35.05 63.8782 35.05ZM86.3234 94V45.13H92.9834L93.7934 52.24H94.0634C98.6534 47.65 103.693 43.96 110.443 43.96C120.703 43.96 125.383 50.62 125.383 63.04V94H117.103V64.12C117.103 54.94 114.313 51.07 107.833 51.07C102.883 51.07 99.3734 53.68 94.5134 58.54V94H86.3234ZM158.355 95.26C147.915 95.26 144.495 88.69 144.495 78.97V51.79H137.205V45.67L144.855 45.13L145.755 31.36H152.685V45.13H165.915V51.79H152.685V79.15C152.685 85.09 154.575 88.6 160.245 88.6C161.955 88.6 164.205 87.88 165.735 87.25L167.355 93.37C164.655 94.36 161.415 95.26 158.355 95.26ZM196.189 95.26C184.129 95.26 173.509 85.81 173.509 69.7C173.509 53.32 184.129 43.96 196.189 43.96C208.159 43.96 218.779 53.32 218.779 69.7C218.779 85.81 208.159 95.26 196.189 95.26ZM196.189 88.42C204.649 88.42 210.319 80.86 210.319 69.7C210.319 58.36 204.649 50.8 196.189 50.8C187.639 50.8 181.969 58.36 181.969 69.7C181.969 80.86 187.639 88.42 196.189 88.42ZM233.579 94V45.13H240.239L241.049 52.24H241.319C245.909 47.65 250.949 43.96 257.699 43.96C267.959 43.96 272.639 50.62 272.639 63.04V94H264.359V64.12C264.359 54.94 261.569 51.07 255.089 51.07C250.139 51.07 246.629 53.68 241.769 58.54V94H233.579ZM310.02 95.26C296.97 95.26 286.62 85.72 286.62 69.7C286.62 53.77 297.33 43.96 308.58 43.96C321 43.96 328.02 52.87 328.02 66.91C328.02 68.62 327.93 70.33 327.66 71.59H294.72C295.35 81.94 301.65 88.69 311.01 88.69C315.69 88.69 319.56 87.16 323.16 84.73L326.13 90.22C321.81 93.01 316.68 95.26 310.02 95.26ZM294.63 65.65H320.82C320.82 55.84 316.41 50.53 308.67 50.53C301.83 50.53 295.71 56.02 294.63 65.65ZM375.364 34.75C374.689 37.675 373.864 41.8 371.914 46.825C370.039 51.4 367.264 56.425 364.264 60.325C367.189 58.6 371.464 57.55 374.764 57.55C380.539 57.55 385.039 61 385.039 67.075C385.039 70.975 385.189 79.6 385.264 84.25H379.489C379.789 80.275 379.864 72.55 379.789 68.65C379.714 64.3 376.714 62.275 372.814 62.275C368.014 62.275 363.289 64.675 359.839 67.75C357.664 69.85 355.564 72.55 353.089 75.625L347.914 71.8C358.714 61.45 363.739 52.75 366.289 46.375C367.939 42.25 368.989 37.75 369.214 34.225L375.364 34.75ZM349.639 42.85C353.689 43.375 358.864 43.6 362.314 43.6C372.439 43.6 385.414 43 395.989 41.125V46.675C385.489 48.25 371.539 48.925 362.014 48.925C358.789 48.925 353.839 48.775 349.639 48.475V42.85ZM406.939 60.925C405.064 61.525 402.364 62.575 400.339 63.325C395.014 65.425 387.889 68.275 380.614 72.025C373.189 75.925 367.939 79.975 367.939 85.15C367.939 91 373.714 91.9 381.439 91.9C387.289 91.9 395.389 91.225 401.989 90.025L401.764 96.1C396.064 96.775 387.739 97.375 381.214 97.375C370.564 97.375 361.939 95.05 361.939 85.975C361.939 76.825 371.239 71.2 380.164 66.625C387.289 62.95 393.364 60.625 398.314 58.3C400.564 57.25 402.439 56.425 404.539 55.375L406.939 60.925ZM459.424 21.1C458.524 24.88 458.074 27.58 457.624 30.1C456.544 36.49 452.224 67.36 452.224 76.09C452.224 82.84 456.544 86.08 464.554 86.08C476.524 86.08 482.374 80.41 482.374 74.11C482.374 67.99 478.954 62.68 473.464 57.19L488.764 53.95C494.614 61.87 497.224 68.26 497.224 75.91C497.224 89.59 484.894 100.3 464.104 100.3C448.804 100.3 438.724 93.73 438.724 78.43C438.724 69.43 443.044 41.8 443.944 29.2C444.304 24.43 444.304 22.54 444.124 20.29L459.424 21.1ZM425.494 31.81C433.504 34.51 444.844 35.68 454.654 35.68C461.674 35.68 468.154 35.14 472.204 34.42L471.754 47.38C466.624 47.92 461.854 48.28 454.204 48.28C444.484 48.28 433.414 46.75 424.864 44.32L425.494 31.81ZM423.694 54.13C433.954 57.55 444.304 58.27 453.844 58.27C458.974 58.27 465.904 57.82 471.484 57.19L471.124 70.06C466.714 70.51 461.584 70.87 456.184 70.87C442.954 70.87 431.164 69.43 422.974 67.27L423.694 54.13ZM519.634 54.67C522.334 54.22 527.194 52.96 529.804 52.15C535.834 50.35 551.314 45.31 562.384 45.31C577.504 45.31 587.224 54.22 587.224 68.62C587.224 84.28 574.174 96.7 543.214 98.59L537.364 85.18C558.514 84.64 572.644 79.24 572.644 68.35C572.644 62.14 568.144 58 561.034 58C550.954 58 534.034 65.02 525.214 68.8L519.634 54.67ZM675.424 42.16C672.274 44.05 669.034 45.85 665.344 47.65C660.034 50.26 649.414 55.12 641.494 60.16C634.564 64.75 629.524 69.52 629.524 75.46C629.524 81.4 635.284 84.19 646.804 84.19C655.714 84.19 667.954 82.66 676.504 80.68L676.324 96.43C668.134 97.78 659.134 98.68 647.164 98.68C628.624 98.68 614.314 93.73 614.314 77.08C614.314 64.75 623.674 56.47 634.384 49.45C642.574 44.05 653.284 38.74 658.504 35.68C662.374 33.43 665.254 31.72 667.864 29.56L675.424 42.16ZM630.334 21.28C634.834 33.52 640.504 44.05 644.734 51.7L632.224 58.99C627.094 50.35 621.694 38.74 616.654 26.86L630.334 21.28ZM726.544 65.2H775.054V102.1H762.634V76.99H738.424V102.46H726.544V65.2ZM765.784 16.87L775.684 27.13C762.004 32.62 744.004 35.41 728.164 36.76C727.624 33.61 725.914 28.48 724.474 25.6C739.594 24.16 755.794 21.1 765.784 16.87ZM744.454 28.3H756.874V72.04H744.454V28.3ZM721.414 43.15H778.834V55.66H721.414V43.15ZM735.184 87.07H767.584V98.86H735.184V87.07ZM698.374 27.67L705.754 18.22C710.524 20.65 718.444 24.61 722.314 27.04L714.574 37.57C711.064 34.96 703.324 30.64 698.374 27.67ZM694.054 52.69L701.074 42.97C706.024 45.22 714.304 49.09 718.354 51.52L711.064 62.41C707.374 59.8 699.364 55.48 694.054 52.69ZM694.954 92.74C699.724 86.08 706.564 75.19 712.054 64.66L721.684 73.39C716.914 82.84 711.514 92.56 706.024 101.56L694.954 92.74ZM802.774 22.9H856.324V35.32H802.774V22.9ZM802.774 43.51H856.684V55.66H802.774V43.51ZM802.774 64.57H857.134V76.9H802.774V64.57ZM795.214 22.9H808.174V55.12C808.174 69.88 806.284 91.03 795.034 103.09C792.964 100.66 787.564 96.25 784.684 94.63C794.494 83.92 795.214 67.72 795.214 55.03V22.9ZM851.914 22.9H864.964V87.88C864.964 94.36 863.614 97.78 859.654 99.76C855.514 101.83 849.934 102.1 841.924 102.01C841.474 98.5 839.494 92.83 837.784 89.5C842.194 89.86 848.044 89.77 849.664 89.77C851.284 89.77 851.914 89.23 851.914 87.7V22.9ZM822.664 27.94H835.894V101.29H822.664V27.94ZM892.324 72.13C899.884 72.13 906.004 78.25 906.004 85.81C906.004 93.37 899.884 99.49 892.324 99.49C884.764 99.49 878.554 93.37 878.554 85.81C878.554 78.25 884.764 72.13 892.324 72.13ZM892.324 94.9C897.364 94.9 901.414 90.85 901.414 85.81C901.414 80.77 897.364 76.72 892.324 76.72C887.284 76.72 883.144 80.77 883.144 85.81C883.144 90.85 887.284 94.9 892.324 94.9Z" fill="black"/>
<path d="M96.82 10.86C96.72 10.36 96.6 9.92 96.46 9.5L98.24 9.2C98.28 9.56 98.36 10.14 98.44 10.58C98.56 11.46 100.76 22.44 101.04 23.76C101.18 24.32 101.34 25 101.54 25.58L99.7 25.92C99.6 25.24 99.54 24.62 99.4 24.04C99.2 22.78 97.06 11.9 96.82 10.86ZM91.18 13.76C91.68 13.72 92.22 13.68 92.86 13.62C94.66 13.42 101.56 12.32 103.46 11.94C104.04 11.84 104.56 11.72 104.9 11.62L105.22 13.3C104.92 13.32 104.32 13.42 103.78 13.5C101.72 13.82 94.9 14.9 93.14 15.2C92.6 15.3 92.12 15.4 91.54 15.54L91.18 13.76ZM91.12 19.52C91.6 19.5 92.36 19.42 92.88 19.34C95.02 19.06 102.46 17.84 104.86 17.4C105.62 17.26 106.2 17.12 106.62 17L106.96 18.68C106.54 18.72 105.9 18.84 105.16 18.96C102.5 19.36 95.28 20.54 93.26 20.9C92.48 21.04 91.92 21.16 91.48 21.28L91.12 19.52ZM132.935 10.36C134.335 11.3 136.915 13.38 138.015 14.48L136.775 15.76C135.755 14.72 133.275 12.56 131.775 11.58L132.935 10.36ZM131.215 23.76C134.695 23.24 137.295 22.02 139.195 20.84C142.295 18.9 144.715 15.94 145.875 13.46L146.835 15.18C145.475 17.66 143.155 20.38 140.135 22.28C138.115 23.54 135.595 24.78 132.255 25.4L131.215 23.76ZM175.115 23.24C175.115 22.12 175.115 13.28 175.115 11.62C175.115 11.04 175.075 10.16 174.975 9.52H176.935C176.855 10.14 176.795 11 176.795 11.62C176.795 14.72 176.815 22.3 176.815 23.24C176.815 23.88 176.855 24.96 176.935 25.62H174.995C175.095 24.98 175.115 23.98 175.115 23.24ZM176.435 14.78C179.075 15.54 183.115 17.08 185.335 18.16L184.635 19.86C182.355 18.64 178.615 17.22 176.435 16.54V14.78ZM210.415 16.34C211.035 16.4 212.075 16.46 213.215 16.46C214.675 16.46 222.695 16.46 224.175 16.46C225.175 16.46 225.875 16.38 226.335 16.34V18.3C225.915 18.28 225.075 18.22 224.195 18.22C222.675 18.22 214.695 18.22 213.215 18.22C212.115 18.22 211.055 18.26 210.415 18.3V16.34ZM251.938 10.36C253.338 11.3 255.918 13.38 257.018 14.48L255.778 15.76C254.758 14.72 252.278 12.56 250.778 11.58L251.938 10.36ZM250.218 23.76C253.698 23.24 256.298 22.02 258.198 20.84C261.298 18.9 263.718 15.94 264.878 13.46L265.838 15.18C264.478 17.66 262.158 20.38 259.138 22.28C257.118 23.54 254.598 24.78 251.258 25.4L250.218 23.76Z" fill="black"/>
<path d="M326.68 39.2C325.827 39.2 325.027 39.04 324.28 38.72C323.533 38.4 322.873 37.9533 322.3 37.38C321.727 36.8067 321.28 36.1467 320.96 35.4C320.64 34.6533 320.48 33.8533 320.48 33C320.48 32.1467 320.64 31.3467 320.96 30.6C321.28 29.8533 321.727 29.1933 322.3 28.62C322.873 28.0467 323.533 27.6 324.28 27.28C325.027 26.96 325.827 26.8 326.68 26.8C327.533 26.8 328.333 26.96 329.08 27.28C329.827 27.6 330.487 28.0467 331.06 28.62C331.633 29.1933 332.08 29.8533 332.4 30.6C332.72 31.3467 332.88 32.1467 332.88 33C332.88 33.8533 332.72 34.6533 332.4 35.4C332.08 36.1467 331.633 36.8067 331.06 37.38C330.487 37.9533 329.827 38.4 329.08 38.72C328.333 39.04 327.533 39.2 326.68 39.2ZM326.68 38.28C327.653 38.28 328.533 38.0467 329.32 37.58C330.12 37.1 330.753 36.46 331.22 35.66C331.7 34.86 331.94 33.9733 331.94 33C331.94 32.0267 331.7 31.14 331.22 30.34C330.753 29.54 330.12 28.9067 329.32 28.44C328.533 27.96 327.653 27.72 326.68 27.72C325.707 27.72 324.82 27.96 324.02 28.44C323.22 28.9067 322.58 29.54 322.1 30.34C321.633 31.14 321.4 32.0267 321.4 33C321.4 33.9733 321.633 34.86 322.1 35.66C322.58 36.46 323.22 37.1 324.02 37.58C324.82 38.0467 325.707 38.28 326.68 38.28ZM324.22 36.5V29.5H327.36C328.013 29.5 328.52 29.6533 328.88 29.96C329.253 30.2667 329.44 30.76 329.44 31.44C329.44 32.6133 328.893 33.2533 327.8 33.36L329.4 36.5H328.3L326.78 33.4H325.18V36.5H324.22ZM325.18 32.5H327.24C327.587 32.5 327.873 32.4267 328.1 32.28C328.34 32.1333 328.46 31.8533 328.46 31.44C328.46 31.0533 328.347 30.7867 328.12 30.64C327.893 30.48 327.6 30.4 327.24 30.4H325.18V32.5Z" fill="black"/>
</svg>
